-: Cover :- 



 
http://desibbrg.org/viewer.php?file=64143464631073593781.jpg


-: Screens :-



    	http://desibbrg.org/images/76534297098479745484.jpg
    	http://desibbrg.org/images/35391916887328195470.jpg
    	http://desibbrg.org/images/26772346621647707951.jpg
    	http://desibbrg.org/images/01436673082828084986.jpg
    	http://desibbrg.org/images/63503173299521472770.jpg
    	http://desibbrg.org/images/38634354695731052168.jpg
    	http://desibbrg.org/images/57658604798286151153.jpg
    	http://desibbrg.org/images/29090802484841457010.jpg
    	http://desibbrg.org/images/21536140027808218449.jpg
    	http://desibbrg.org/images/62912235169469542538.jpg
    	http://desibbrg.org/images/30711169540085251754.jpg
    	http://desibbrg.org/images/62764395542313548781.jpg
    	http://desibbrg.org/images/89279766886052820016.jpg









-: Info :-  

General

Format                           : MP4 Video
File size                        : 748 MiB
Duration                         : 1h 59mn
Overall bit rate                 : 872 Kbps

Video
Format                           : AVC
Format/Info                      : Advanced Video Codec
Format profile                   : Main@L3.0
Format settings, CABAC           : Yes
Format settings, ReFrames        : 3 frames
Duration                         : 1h 59mn
Bit rate                         : 734 Kbps
Width                            : 640 pixels
Height                           : 480 pixels
Display aspect ratio             : 4:3
Frame rate mode                  : Constant
Frame rate                       : 29.970 fps
Color space                      : YUV
Chroma subsampling               : 4:2:0
Bit depth                        : 8 bits
Scan type                        : Progressive
Bits/(Pixel*Frame)               : 0.080
Stream size                      : 630 MiB (84%)

Audio
Format                           : AAC
Format/Info                      : Advanced Audio Codec
Format version                   : Version 4
Format profile                   : LC
Format settings, SBR             : No
Duration                         : 1h 59mn
Bit rate                         : 129 Kbps
Channel(s)                       : 2 channels
Channel positions                : Front: L R
Sampling rate                    : 44.1 KHz
Bit depth                        : 16 bits
Stream size                      : 110 MiB (15%)


 
http://www.imdb.com/title/tt0061366/




    Banner
    P S Pictures

    Release Date
    1 Jan 1967

    Genre
    Romance,Family Drama

    Producer
    Pachhi

    Star Cast
    Raj Kapoor.... Raj Singh
    Rajshree.... Rita
    Mehmood.... Albata
    Amita.... Sheri
    Achla Sachdev.... Raj's mom
    Pran.... Pran
    Prem Chopra
    Raj Mehra.... J.J. Singh
    Omprakash.... Raj's mom
    Pachhi.... uncredited



Color
C
Language
Hindi
Director

    Pachhi

Editor

    Shyam

Cinematography

    G Singh

    Music Company
    Saregama-HMV



Raj Singh is the nephew and heir apparent of multi-millionaire J.J. Singh. J.J. Singh has to travel worldwide for business purposes, and he asks Raj to join him in Tokyo. An employee, Pran, who has been asked to take care of Raj's travel needs, decides to sabotage this trip in order to embarrass Raj. When Raj lands at Tokyo, he misses his uncle, who has had a change in plans, and is now in Europe. Raj must re-book his flight to go to Europe. Raj finds that he has no money for an air-ticket, or to go anywhere. All he has is $8 American dollars, which will not even be able to buy him a meal in Japan, leave alone travel anywhere.